<svg viewBox="0 0 788 788" fill="none" xmlns="http://www.w3.org/2000/svg">
<path d="M788 394C788 611.6 611.6 788 394 788C176.4 788 0 611.6 0 394C0 176.4 176.4 0 394 0C611.6 0 788 176.4 788 394ZM321.595 394C321.595 433.988 354.012 466.405 394 466.405C433.988 466.405 466.405 433.988 466.405 394C466.405 354.012 433.988 321.595 394 321.595C354.012 321.595 321.595 354.012 321.595 394Z" fill="#262626"/>
<path d="M551 394C551 480.709 480.709 551 394 551C307.291 551 237 480.709 237 394C237 307.291 307.291 237 394 237C480.709 237 551 307.291 551 394ZM341.329 394C341.329 423.089 364.911 446.671 394 446.671C423.089 446.671 446.671 423.089 446.671 394C446.671 364.911 423.089 341.329 394 341.329C364.911 341.329 341.329 364.911 341.329 394Z" fill="#AE3017"/>
<path d="M676.315 519.233C679.423 520.612 680.83 524.251 679.391 527.331C661.506 565.613 636.092 599.926 604.644 628.21C573.196 656.493 536.39 678.14 496.433 691.88C493.218 692.985 489.748 691.202 488.706 687.966V687.966C487.663 684.731 489.444 681.269 492.657 680.161C530.966 666.954 566.253 646.182 596.412 619.057C626.572 591.932 650.956 559.037 668.136 522.338C669.577 519.26 673.208 517.855 676.315 519.233V519.233Z" fill="url(#paint0_linear_2_12)"/>
<path d="M95.5528 412.829C92.268 413.036 89.4311 410.541 89.2881 407.253C87.5103 366.379 93.9736 325.544 108.316 287.184C122.658 248.825 144.572 213.766 172.729 184.085C174.995 181.697 178.773 181.675 181.116 183.987V183.987C183.459 186.298 183.48 190.067 181.216 192.457C154.236 220.942 133.235 254.571 119.48 291.358C105.725 328.146 99.512 367.303 101.186 406.502C101.326 409.791 98.8376 412.622 95.5528 412.829V412.829Z" fill="url(#paint1_linear_2_12)"/>
<path d="M542.206 149.052C543.837 146.356 547.349 145.488 550.012 147.172C608.432 184.096 651.867 240.554 672.578 306.487C673.522 309.493 671.783 312.666 668.759 313.551V313.551C665.735 314.437 662.571 312.7 661.624 309.695C641.718 246.5 600.083 192.38 544.104 156.937C541.442 155.251 540.574 151.748 542.206 149.052V149.052Z" fill="url(#paint2_linear_2_12)"/>
<path d="M313.348 624.428C312.46 626.964 309.682 628.305 307.164 627.368C275.86 615.72 247.203 597.886 222.912 574.914C198.62 551.942 179.216 524.324 165.84 493.719C164.764 491.257 165.947 488.409 168.43 487.381V487.381C170.913 486.353 173.754 487.535 174.832 489.996C187.683 519.336 206.301 545.813 229.598 567.844C252.894 589.875 280.368 606.988 310.379 618.182C312.897 619.121 314.235 621.892 313.348 624.428V624.428Z" fill="#3D3D3D"/>
<path d="M380.507 150.238C380.359 147.556 382.414 145.255 385.099 145.159C427.55 143.64 469.686 153.008 507.494 172.37C509.886 173.594 510.773 176.549 509.501 178.916V178.916C508.23 181.283 505.282 182.167 502.89 180.944C466.659 162.426 426.301 153.454 385.637 154.877C382.951 154.971 380.656 152.921 380.507 150.238V150.238Z" fill="#717171"/>
<defs>
<linearGradient id="paint0_linear_2_12" x1="778" y1="79" x2="394" y2="709" gradientUnits="userSpaceOnUse">
<stop stop-color="#484848"/>
<stop offset="1" stop-color="#D2D2D2" stop-opacity="0"/>
</linearGradient>
<linearGradient id="paint1_linear_2_12" x1="687.5" y1="43.5" x2="-32.5" y2="448" gradientUnits="userSpaceOnUse">
<stop stop-color="#484848"/>
<stop offset="1" stop-color="#D2D2D2" stop-opacity="0"/>
</linearGradient>
<linearGradient id="paint2_linear_2_12" x1="712" y1="69" x2="378.5" y2="416" gradientUnits="userSpaceOnUse">
<stop stop-color="#747474"/>
<stop offset="1" stop-color="#8D8D8D" stop-opacity="0"/>
</linearGradient>
</defs>
</svg>
