<svg width="284" height="284" viewBox="0 0 284 284" fill="none" xmlns="http://www.w3.org/2000/svg">
<circle cx="142" cy="142" r="142" fill="#AB0000"/>
<path d="M198 70.1853C198 70.1853 207.235 44.5853 179.5 47.1855C163.5 48.6855 155.5 63.6855 161 74.6855C167 86.6855 178.5 80.6853 178.5 80.6853C178.5 80.6853 180.089 91.3009 175.5 100.185C170.911 109.07 155 126.185 155 126.185L170 139.185C170 139.185 182.533 128.298 188 124.685C193.467 121.073 198.5 120.185 198.5 120.185C198.5 120.185 216.5 146.685 236 129.185C266.352 101.946 225.5 92.6853 225.5 92.6853C225.5 92.6853 259.412 78.554 237.5 56.1854C213.5 31.6854 198 70.1853 198 70.1853Z" fill="#832E2E"/>
<path d="M198.5 120.185C198.5 120.185 216.5 146.685 236 129.185C266.352 101.946 225.5 92.6853 225.5 92.6853C225.5 92.6853 259.412 78.554 237.5 56.1854C213.5 31.6854 198 70.1853 198 70.1853C198 70.1853 207.235 44.5853 179.5 47.1855C163.5 48.6855 155.5 63.6855 161 74.6855C167 86.6855 178.5 80.6853 178.5 80.6853C178.5 80.6853 180.089 91.3009 175.5 100.185C170.911 109.07 155 126.185 155 126.185L170 139.185C170 139.185 182.533 128.298 188 124.685C193.467 121.073 198.5 120.185 198.5 120.185ZM198.5 120.185L211 118.185L216.5 120.185M197 80.6853C197 80.6853 197.391 84.1352 197 86.1855C196.609 88.2357 195 91.1855 195 91.1855M200 104.185C200 104.185 205.56 100.619 209.5 99.1855C212.526 98.0844 217.5 97.1855 217.5 97.1855" stroke="#580000" stroke-width="3" stroke-linecap="round" stroke-linejoin="round"/>
<path d="M59.0859 204.204C55.2287 213.204 47.0859 217.704 43.0859 217.704C41.0975 217.704 74.0094 235.86 102.586 241.204C131.496 246.61 145.162 244.17 164.086 235.704C183.086 227.204 197.586 204.204 200.086 188.704C202.586 173.204 196.086 142.704 181.086 127.704C166.086 112.704 155.682 108.408 136.586 107.204C115.691 105.886 101.332 110.854 86.0859 125.204C74.1253 136.461 68.5859 158.014 67.0859 162.204C65.5859 166.394 62.9431 195.204 59.0859 204.204Z" fill="#AB0000"/>
<path d="M90.0859 148.704C90.0859 148.704 105.086 145.717 117.086 152.704C132.086 161.437 133.586 173.204 133.586 173.204M87.5859 169.204C87.5859 169.204 90.7135 168.65 92.5859 169.204C94.3523 169.726 96.5859 171.704 96.5859 171.704M83.0859 187.204C83.0859 187.204 87.4313 187.827 90.0859 188.704C95.5859 190.521 98.5859 193.204 102.586 196.704C105.215 199.004 106.586 204.204 106.586 204.204M43.0859 217.704C47.0859 217.704 55.2287 213.204 59.0859 204.204C62.9431 195.204 65.5859 166.394 67.0859 162.204C68.5859 158.014 74.1253 136.461 86.0859 125.204C101.332 110.854 115.691 105.886 136.586 107.204C155.682 108.408 166.086 112.704 181.086 127.704C196.086 142.704 202.586 173.204 200.086 188.704C197.586 204.204 183.086 227.204 164.086 235.704C145.162 244.17 131.496 246.61 102.586 241.204C74.0094 235.86 41.0975 217.704 43.0859 217.704Z" stroke="#580000" stroke-width="3" stroke-linecap="round" stroke-linejoin="round"/>
<path d="M65.9156 162.399C65.9156 162.399 54.9156 148.399 62.9156 131.399C70.4261 115.439 79.0951 114.717 84.4156 116.311C84.4156 116.311 106.416 89.4357 144.916 93.3989C212.916 100.399 205.416 150.27 205.416 150.27C214.568 154.541 225.668 165.015 218.416 190.399C212.245 211.994 200.935 217.981 193.178 219.399C188.362 220.279 184.916 219.399 184.916 219.399C184.916 219.399 161.5 215.5 169 178C176 143 195.416 147.399 195.416 147.399C195.416 147.399 196.797 147.512 198.916 148.016C198.916 148.016 195.416 125.399 181.916 113.899C162.805 97.6198 135.127 89.6704 108.916 101.899C99.3939 106.341 87.4156 117.573 87.4156 117.573C88.6838 118.27 89.4156 118.899 89.4156 118.899C89.4156 118.899 77.8993 129.873 73.4156 138.899C67.4545 150.899 65.9156 162.399 65.9156 162.399Z" fill="#410000"/>
<path d="M44 86.5C44 78.5 49.3077 75 51.5 73.5C61 67 70.5 75 70.5 75V30.5C70.5 30.5 77.3697 38.7308 84.4156 40C91.4615 41.2692 102 36.5 102 36.5C102 36.5 92.6964 49.7868 84.4156 50.5C79.7699 50.9001 76 44 76 44V78.5C76 78.5 73.4156 88.6011 62.9156 93C57.0886 95.4412 44 92.8177 44 86.5Z" fill="#410000"/>
<path d="M84.4156 116.311C79.0951 114.717 70.4261 115.439 62.9156 131.399C54.9156 148.399 65.9156 162.399 65.9156 162.399C65.9156 162.399 67.4545 150.899 73.4156 138.899C77.8993 129.873 89.4156 118.899 89.4156 118.899C89.4156 118.899 88.6838 118.27 87.4156 117.573M84.4156 116.311C84.4156 116.311 106.416 89.4357 144.916 93.3989C212.916 100.399 205.416 150.27 205.416 150.27M84.4156 116.311C85.5972 116.665 86.6136 117.133 87.4156 117.573M205.416 150.27C214.568 154.541 225.668 165.015 218.416 190.399C212.245 211.994 200.935 217.981 193.178 219.399M205.416 150.27C202.985 149.136 200.691 148.439 198.916 148.016M198.916 148.016C196.797 147.512 195.416 147.399 195.416 147.399C195.416 147.399 176 143 169 178C161.5 215.5 184.916 219.399 184.916 219.399C184.916 219.399 188.362 220.279 193.178 219.399M198.916 148.016C198.916 148.016 195.416 125.399 181.916 113.899C162.805 97.6198 135.127 89.6704 108.916 101.899C99.3939 106.341 87.4156 117.573 87.4156 117.573M193.178 219.399C193.178 219.399 189.363 225.104 190.5 228.5C193.178 236.5 218.416 223.5 218.416 232.5C218.416 237.473 212 243.5 212 243.5M51.5 73.5C49.3077 75 44 78.5 44 86.5C44 92.8177 57.0886 95.4412 62.9156 93C73.4156 88.6011 76 78.5 76 78.5V44C76 44 79.7699 50.9001 84.4156 50.5C92.6964 49.7868 102 36.5 102 36.5C102 36.5 91.4615 41.2692 84.4156 40C77.3697 38.7308 70.5 30.5 70.5 30.5V75C70.5 75 61 67 51.5 73.5Z" stroke="#410000" stroke-width="3" stroke-linecap="round" stroke-linejoin="round"/>
<path d="M173.5 267.5C174.5 264.5 179.5 261.5 181.5 263.5C183.5 265.5 179.088 270.323 180 268.5C180.5 267.5 183.5 266 184.5 267.5C185.754 269.382 183.866 272.424 181.5 274C178.809 275.793 175.5 276 175.5 276M177.5 266C177.5 266 178.207 268.133 178.5 269.5C178.793 270.867 179 273 179 273M188.5 270C189.086 268.828 190.791 267.291 190 266.5C189.5 266 186.712 268.318 188.5 271C189.5 272.5 192.222 271 194 268C194.821 266.615 196.528 263.491 195 264C193.5 264.5 193.26 267.239 194.5 268.5C195.974 270 199.5 266.5 199.5 266.5M199.5 258C200.5 260 200.5 267 202 267C203.052 267 204 265.5 204 265.5M203 262L200 264M206 256.5C208 252.5 211.535 251 212.5 252C213.947 253.5 211.081 256.821 212 258C212.919 259.179 215 260.5 219 258M209 255.5C210 258 210.5 259.5 211 262M220.5 252.5C218.5 255 220.5 257 222 256C225.24 253.84 224 252 221.5 252M225 249C223 252 225.044 253.152 227 252.5C228.5 252 229.5 249.5 226.5 248.5M228.5 241.5C229.5 243.5 229.5 248.5 231 248.5C232.052 248.5 232 248.5 233 248M231 244.5L228.5 246.5" stroke="white" stroke-linecap="round"/>
</svg>
